<svg height="22px" viewBox="-98 0 511 511.9994" xmlns="http://www.w3.org/2000/svg"><path d="m158.386719 0c-87.058594 0-157.886719 70.839844-157.886719 157.894531 0 51.976563 55.910156 201.054688 102.824219 316.964844 20.015625 49.476563 90.074219 49.5625 110.121093 0 46.917969-115.910156 102.835938-264.988281 102.835938-316.964844.003906-87.054687-70.835938-157.894531-157.894531-157.894531zm26.566406 463.332031c-9.65625 23.851563-43.390625 24.0625-53.132813 0-64.867187-160.273437-100.582031-268.746093-100.582031-305.4375 0-70.109375 57.035157-127.15625 127.148438-127.15625 70.109375 0 127.160156 57.046875 127.160156 127.15625 0 36.691407-35.726563 145.164063-100.59375 305.4375zm0 0"/><path d="m158.386719 74.917969c-45.757813 0-82.980469 37.222656-82.980469 82.980469 0 45.757812 37.222656 82.980468 82.980469 82.980468 45.757812 0 82.980469-37.222656 82.980469-82.980468 0-45.757813-37.222657-82.980469-82.980469-82.980469zm0 135.222656c-28.8125 0-52.242188-23.433594-52.242188-52.246094 0-28.808593 23.429688-52.242187 52.242188-52.242187s52.242187 23.433594 52.242187 52.242187c0 28.8125-23.429687 52.246094-52.242187 52.246094zm0 0"/></svg>