<?xml version="1.0" encoding="UTF-8" standalone="no"?>
<svg
   xmlns:dc="http://purl.org/dc/elements/1.1/"
   xmlns:cc="http://creativecommons.org/ns#"
   xmlns:rdf="http://www.w3.org/1999/02/22-rdf-syntax-ns#"
   xmlns:svg="http://www.w3.org/2000/svg"
   xmlns="http://www.w3.org/2000/svg"
   xmlns:sodipodi="http://sodipodi.sourceforge.net/DTD/sodipodi-0.dtd"
   xmlns:inkscape="http://www.inkscape.org/namespaces/inkscape"
   x="0px"
   y="0px"
   xml:space="preserve"
   viewBox="417.16 210.75 528.83448 94.427091"
   version="1.1"
   id="svg4"
   sodipodi:docname="rating-empty.svg"
   width="528.83447"
   height="94.427094"
   inkscape:version="0.92.5 (2060ec1f9f, 2020-04-08)"><metadata
   id="metadata10"><rdf:RDF><cc:Work
       rdf:about=""><dc:format>image/svg+xml</dc:format><dc:type
         rdf:resource="http://purl.org/dc/dcmitype/StillImage" /><dc:title></dc:title></cc:Work></rdf:RDF></metadata><defs
   id="defs8" /><sodipodi:namedview
   pagecolor="#ffffff"
   bordercolor="#666666"
   borderopacity="1"
   objecttolerance="10"
   gridtolerance="10"
   guidetolerance="10"
   inkscape:pageopacity="0"
   inkscape:pageshadow="2"
   inkscape:window-width="1366"
   inkscape:window-height="704"
   id="namedview6"
   showgrid="false"
   fit-margin-top="0"
   fit-margin-left="0"
   fit-margin-right="0"
   fit-margin-bottom="0"
   inkscape:zoom="0.65186166"
   inkscape:cx="586.8019"
   inkscape:cy="27.416088"
   inkscape:window-x="0"
   inkscape:window-y="0"
   inkscape:window-maximized="1"
   inkscape:current-layer="svg4" />

<g
   id="g25"
   transform="translate(0.00451233,3.91809)"><path
     id="path2"
     d="m 511.681,244.688 c -0.769,-2.366 -2.809,-4.08 -5.267,-4.439 l -24.892,-3.617 -11.133,-22.539 c -2.197,-4.458 -9.49,-4.458 -11.687,0 l -11.133,22.539 -24.834,3.617 c -2.457,0.359 -4.497,2.079 -5.26,4.439 -0.769,2.366 -0.124,4.954 1.656,6.681 l 18.003,17.501 -4.243,24.769 c -0.417,2.444 0.587,4.921 2.594,6.381 2.014,1.453 4.68,1.643 6.87,0.489 l 22.188,-11.7 22.253,11.7 c 0.952,0.502 1.995,0.75 3.031,0.75 1.349,0 2.698,-0.417 3.846,-1.238 2.008,-1.467 3.011,-3.937 2.594,-6.381 l -4.243,-24.769 18.003,-17.501 c 1.778,-1.722 2.423,-4.323 1.654,-6.682 z m -31.222,17.227 c -1.538,1.499 -2.249,3.657 -1.884,5.775 l 2.594,15.135 -13.603,-7.15 c -0.945,-0.502 -1.988,-0.75 -3.031,-0.75 -1.043,0 -2.086,0.248 -3.031,0.75 l -13.531,7.131 2.594,-15.115 c 0.365,-2.118 -0.345,-4.282 -1.884,-5.775 l -10.976,-10.67 15.128,-2.203 c 2.118,-0.306 3.95,-1.643 4.902,-3.565 l 6.798,-13.773 6.798,13.773 c 0.952,1.929 2.783,3.259 4.908,3.565 l 15.187,2.21 z"
     inkscape:connector-curvature="0" /><path
     inkscape:connector-curvature="0"
     d="m 624.09624,243.19214 c -0.769,-2.366 -2.809,-4.08 -5.267,-4.439 l -24.892,-3.617 -11.133,-22.539 c -2.197,-4.458 -9.49,-4.458 -11.687,0 l -11.133,22.539 -24.834,3.617 c -2.457,0.359 -4.497,2.079 -5.26,4.439 -0.769,2.366 -0.124,4.954 1.656,6.681 l 18.003,17.501 -4.243,24.769 c -0.417,2.444 0.587,4.921 2.594,6.381 2.014,1.453 4.68,1.643 6.87,0.489 l 22.188,-11.7 22.253,11.7 c 0.952,0.502 1.995,0.75 3.031,0.75 1.349,0 2.698,-0.417 3.846,-1.238 2.008,-1.467 3.011,-3.937 2.594,-6.381 l -4.243,-24.769 18.003,-17.501 c 1.778,-1.722 2.423,-4.323 1.654,-6.682 z m -31.222,17.227 c -1.538,1.499 -2.249,3.657 -1.884,5.775 l 2.594,15.135 -13.603,-7.15 c -0.945,-0.502 -1.988,-0.75 -3.031,-0.75 -1.043,0 -2.086,0.248 -3.031,0.75 l -13.531,7.131 2.594,-15.115 c 0.365,-2.118 -0.345,-4.282 -1.884,-5.775 l -10.976,-10.67 15.128,-2.203 c 2.118,-0.306 3.95,-1.643 4.902,-3.565 l 6.798,-13.773 6.798,13.773 c 0.952,1.929 2.783,3.259 4.908,3.565 l 15.187,2.21 z"
     id="path12" /><path
     id="path14"
     d="m 734.88787,241.23635 c -0.769,-2.366 -2.809,-4.08 -5.267,-4.439 l -24.892,-3.617 -11.133,-22.539 c -2.197,-4.458 -9.49,-4.458 -11.687,0 l -11.133,22.539 -24.834,3.617 c -2.457,0.359 -4.497,2.079 -5.26,4.439 -0.769,2.366 -0.124,4.954 1.656,6.681 l 18.003,17.501 -4.243,24.769 c -0.417,2.444 0.587,4.921 2.594,6.381 2.014,1.453 4.68,1.643 6.87,0.489 l 22.188,-11.7 22.253,11.7 c 0.952,0.502 1.995,0.75 3.031,0.75 1.349,0 2.698,-0.417 3.846,-1.238 2.008,-1.467 3.011,-3.937 2.594,-6.381 l -4.243,-24.769 18.003,-17.501 c 1.778,-1.722 2.423,-4.323 1.654,-6.682 z m -31.222,17.227 c -1.538,1.499 -2.249,3.657 -1.884,5.775 l 2.594,15.135 -13.603,-7.15 c -0.945,-0.502 -1.988,-0.75 -3.031,-0.75 -1.043,0 -2.086,0.248 -3.031,0.75 l -13.531,7.131 2.594,-15.115 c 0.365,-2.118 -0.345,-4.282 -1.884,-5.775 l -10.976,-10.67 15.128,-2.203 c 2.118,-0.306 3.95,-1.643 4.902,-3.565 l 6.798,-13.773 6.798,13.773 c 0.952,1.929 2.783,3.259 4.908,3.565 l 15.187,2.21 z"
     inkscape:connector-curvature="0" /><path
     inkscape:connector-curvature="0"
     d="m 839.67041,240.77041 c -0.769,-2.366 -2.809,-4.08 -5.267,-4.439 l -24.892,-3.617 -11.133,-22.539 c -2.197,-4.458 -9.49,-4.458 -11.687,0 l -11.133,22.539 -24.834,3.617 c -2.457,0.359 -4.497,2.079 -5.26,4.439 -0.769,2.366 -0.124,4.954 1.656,6.681 l 18.003,17.501 -4.243,24.769 c -0.417,2.444 0.587,4.921 2.594,6.381 2.014,1.453 4.68,1.643 6.87,0.489 l 22.188,-11.7 22.253,11.7 c 0.952,0.502 1.995,0.75 3.031,0.75 1.349,0 2.698,-0.417 3.846,-1.238 2.008,-1.467 3.011,-3.937 2.594,-6.381 l -4.243,-24.769 18.003,-17.501 c 1.778,-1.722 2.423,-4.323 1.654,-6.682 z m -31.222,17.227 c -1.538,1.499 -2.249,3.657 -1.884,5.775 l 2.594,15.135 -13.603,-7.15 c -0.945,-0.502 -1.988,-0.75 -3.031,-0.75 -1.043,0 -2.086,0.248 -3.031,0.75 l -13.531,7.131 2.594,-15.115 c 0.365,-2.118 -0.345,-4.282 -1.884,-5.775 l -10.976,-10.67 15.128,-2.203 c 2.118,-0.306 3.95,-1.643 4.902,-3.565 l 6.798,-13.773 6.798,13.773 c 0.952,1.929 2.783,3.259 4.908,3.565 l 15.187,2.21 z"
     id="path16" /><path
     id="path18"
     d="m 945.67041,240.77041 c -0.769,-2.366 -2.809,-4.08 -5.267,-4.439 l -24.892,-3.617 -11.133,-22.539 c -2.197,-4.458 -9.49,-4.458 -11.687,0 l -11.133,22.539 -24.834,3.617 c -2.457,0.359 -4.497,2.079 -5.26,4.439 -0.769,2.366 -0.124,4.954 1.656,6.681 l 18.003,17.501 -4.243,24.769 c -0.417,2.444 0.587,4.921 2.594,6.381 2.014,1.453 4.68,1.643 6.87,0.489 l 22.188,-11.7 22.253,11.7 c 0.952,0.502 1.995,0.75 3.031,0.75 1.349,0 2.698,-0.417 3.846,-1.238 2.008,-1.467 3.011,-3.937 2.594,-6.381 l -4.243,-24.769 18.003,-17.501 c 1.778,-1.722 2.423,-4.323 1.654,-6.682 z m -31.222,17.227 c -1.538,1.499 -2.249,3.657 -1.884,5.775 l 2.594,15.135 -13.603,-7.15 c -0.945,-0.502 -1.988,-0.75 -3.031,-0.75 -1.043,0 -2.086,0.248 -3.031,0.75 l -13.531,7.131 2.594,-15.115 c 0.365,-2.118 -0.345,-4.282 -1.884,-5.775 l -10.976,-10.67 15.128,-2.203 c 2.118,-0.306 3.95,-1.643 4.902,-3.565 l 6.798,-13.773 6.798,13.773 c 0.952,1.929 2.783,3.259 4.908,3.565 l 15.187,2.21 z"
     inkscape:connector-curvature="0" /></g></svg>